<mxfile host="Electron" modified="2023-10-10T16:17:17.294Z" agent="Mozilla/5.0 (Windows NT 10.0; Win64; x64) AppleWebKit/537.36 (KHTML, like Gecko) draw.io/22.0.2 Chrome/114.0.5735.289 Electron/25.8.4 Safari/537.36" etag="FMJfybRQvxz1IqMH7CHd" version="22.0.2" type="device">
  <diagram name="Page-1" id="uHUrfIVvx9b2arXOunB7">
    <mxGraphModel dx="1183" dy="685" grid="1" gridSize="10" guides="1" tooltips="1" connect="1" arrows="1" fold="1" page="1" pageScale="1" pageWidth="1654" pageHeight="1169" math="1" shadow="0">
      <root>
        <mxCell id="0" />
        <mxCell id="1" parent="0" />
        <mxCell id="aCQPrEgid5yJ1C7_CaqJ-37" value="$$&lt;br&gt;in_3&lt;br&gt;$$" style="text;html=1;align=center;verticalAlign=middle;resizable=0;points=[];autosize=1;strokeColor=none;fillColor=none;fontColor=#5e81ac;" vertex="1" parent="1">
          <mxGeometry x="120" y="330" width="50" height="60" as="geometry" />
        </mxCell>
        <mxCell id="aCQPrEgid5yJ1C7_CaqJ-34" value="$$&lt;br&gt;in_0&lt;br&gt;$$" style="text;html=1;align=center;verticalAlign=middle;resizable=0;points=[];autosize=1;strokeColor=none;fillColor=none;fontColor=#8FBCBB;" vertex="1" parent="1">
          <mxGeometry x="120" y="80" width="50" height="60" as="geometry" />
        </mxCell>
        <mxCell id="aCQPrEgid5yJ1C7_CaqJ-36" value="$$&lt;br&gt;in_2&lt;br&gt;$$" style="text;html=1;align=center;verticalAlign=middle;resizable=0;points=[];autosize=1;strokeColor=none;fillColor=none;fontColor=#81A1C1;" vertex="1" parent="1">
          <mxGeometry x="120" y="310" width="50" height="60" as="geometry" />
        </mxCell>
        <mxCell id="aCQPrEgid5yJ1C7_CaqJ-56" value="$$&lt;br&gt;op_{13}&lt;br&gt;$$" style="text;html=1;align=center;verticalAlign=middle;resizable=0;points=[];autosize=1;strokeColor=none;fillColor=none;" vertex="1" parent="1">
          <mxGeometry x="505" y="500" width="60" height="60" as="geometry" />
        </mxCell>
        <mxCell id="aCQPrEgid5yJ1C7_CaqJ-57" value="$$&lt;br&gt;op_{14}&lt;br&gt;$$" style="text;html=1;align=center;verticalAlign=middle;resizable=0;points=[];autosize=1;strokeColor=none;fillColor=none;" vertex="1" parent="1">
          <mxGeometry x="505" y="520" width="60" height="60" as="geometry" />
        </mxCell>
        <mxCell id="aCQPrEgid5yJ1C7_CaqJ-58" value="$$&lt;br&gt;op_{15}&lt;br&gt;$$" style="text;html=1;align=center;verticalAlign=middle;resizable=0;points=[];autosize=1;strokeColor=none;fillColor=none;" vertex="1" parent="1">
          <mxGeometry x="505" y="540" width="60" height="60" as="geometry" />
        </mxCell>
        <mxCell id="aCQPrEgid5yJ1C7_CaqJ-52" value="$$&lt;br&gt;op_9&lt;br&gt;$$" style="text;html=1;align=center;verticalAlign=middle;resizable=0;points=[];autosize=1;strokeColor=none;fillColor=none;" vertex="1" parent="1">
          <mxGeometry x="510" y="380" width="50" height="60" as="geometry" />
        </mxCell>
        <mxCell id="aCQPrEgid5yJ1C7_CaqJ-53" value="$$&lt;br&gt;op_{10}&lt;br&gt;$$" style="text;html=1;align=center;verticalAlign=middle;resizable=0;points=[];autosize=1;strokeColor=none;fillColor=none;" vertex="1" parent="1">
          <mxGeometry x="505" y="400" width="60" height="60" as="geometry" />
        </mxCell>
        <mxCell id="aCQPrEgid5yJ1C7_CaqJ-54" value="$$&lt;br&gt;op_{11}&lt;br&gt;$$" style="text;html=1;align=center;verticalAlign=middle;resizable=0;points=[];autosize=1;strokeColor=none;fillColor=none;" vertex="1" parent="1">
          <mxGeometry x="505" y="420" width="60" height="60" as="geometry" />
        </mxCell>
        <mxCell id="aCQPrEgid5yJ1C7_CaqJ-50" value="$$&lt;br&gt;op_7&lt;br&gt;$$" style="text;html=1;align=center;verticalAlign=middle;resizable=0;points=[];autosize=1;strokeColor=none;fillColor=none;" vertex="1" parent="1">
          <mxGeometry x="510" y="300" width="50" height="60" as="geometry" />
        </mxCell>
        <mxCell id="aCQPrEgid5yJ1C7_CaqJ-48" value="$$&lt;br&gt;op_5&lt;br&gt;$$" style="text;html=1;align=center;verticalAlign=middle;resizable=0;points=[];autosize=1;strokeColor=none;fillColor=none;" vertex="1" parent="1">
          <mxGeometry x="510" y="260" width="50" height="60" as="geometry" />
        </mxCell>
        <mxCell id="aCQPrEgid5yJ1C7_CaqJ-49" value="$$&lt;br&gt;op_6&lt;br&gt;$$" style="text;html=1;align=center;verticalAlign=middle;resizable=0;points=[];autosize=1;strokeColor=none;fillColor=none;" vertex="1" parent="1">
          <mxGeometry x="510" y="280" width="50" height="60" as="geometry" />
        </mxCell>
        <mxCell id="aCQPrEgid5yJ1C7_CaqJ-41" value="$$&lt;br&gt;en_2&lt;br&gt;$$" style="text;html=1;align=center;verticalAlign=middle;resizable=0;points=[];autosize=1;strokeColor=none;fillColor=none;fontColor=#a3be8c;" vertex="1" parent="1">
          <mxGeometry x="300" y="346" width="50" height="60" as="geometry" />
        </mxCell>
        <mxCell id="aCQPrEgid5yJ1C7_CaqJ-42" value="$$&lt;br&gt;en_3&lt;br&gt;$$" style="text;html=1;align=center;verticalAlign=middle;resizable=0;points=[];autosize=1;strokeColor=none;fillColor=none;fontColor=#b48ead;" vertex="1" parent="1">
          <mxGeometry x="290" y="380" width="50" height="60" as="geometry" />
        </mxCell>
        <mxCell id="aCQPrEgid5yJ1C7_CaqJ-35" value="$$&lt;br&gt;in_1&lt;br&gt;$$" style="text;html=1;align=center;verticalAlign=middle;resizable=0;points=[];autosize=1;strokeColor=none;fillColor=none;fontColor=#88C0D0;" vertex="1" parent="1">
          <mxGeometry x="120" y="100" width="50" height="60" as="geometry" />
        </mxCell>
        <mxCell id="aCQPrEgid5yJ1C7_CaqJ-3" style="edgeStyle=orthogonalEdgeStyle;rounded=0;orthogonalLoop=1;jettySize=auto;html=1;exitX=1;exitY=0.5;exitDx=0;exitDy=0;entryX=0;entryY=0.75;entryDx=0;entryDy=0;endArrow=none;endFill=0;strokeColor=#EBCB8B;" edge="1" parent="1" source="jRbW4b_myETGWLnF5Oeu-22" target="jRbW4b_myETGWLnF5Oeu-26">
          <mxGeometry relative="1" as="geometry">
            <Array as="points">
              <mxPoint x="310" y="350" />
              <mxPoint x="340" y="350" />
              <mxPoint x="340" y="320" />
            </Array>
          </mxGeometry>
        </mxCell>
        <mxCell id="aCQPrEgid5yJ1C7_CaqJ-4" style="edgeStyle=orthogonalEdgeStyle;rounded=0;orthogonalLoop=1;jettySize=auto;html=1;exitX=1;exitY=0.75;exitDx=0;exitDy=0;entryX=0;entryY=0.75;entryDx=0;entryDy=0;endArrow=none;endFill=0;strokeColor=#a3be8c;" edge="1" parent="1" source="jRbW4b_myETGWLnF5Oeu-22" target="jRbW4b_myETGWLnF5Oeu-27">
          <mxGeometry relative="1" as="geometry">
            <Array as="points">
              <mxPoint x="310" y="370" />
              <mxPoint x="340" y="370" />
              <mxPoint x="340" y="440" />
            </Array>
          </mxGeometry>
        </mxCell>
        <mxCell id="aCQPrEgid5yJ1C7_CaqJ-5" style="edgeStyle=orthogonalEdgeStyle;rounded=0;orthogonalLoop=1;jettySize=auto;html=1;exitX=1;exitY=1;exitDx=0;exitDy=0;entryX=0;entryY=0.75;entryDx=0;entryDy=0;endArrow=none;endFill=0;strokeColor=#B48EAD;" edge="1" parent="1" source="jRbW4b_myETGWLnF5Oeu-22" target="aCQPrEgid5yJ1C7_CaqJ-1">
          <mxGeometry relative="1" as="geometry">
            <mxPoint x="360" y="560" as="targetPoint" />
            <Array as="points">
              <mxPoint x="310" y="390" />
              <mxPoint x="330" y="390" />
              <mxPoint x="330" y="560" />
            </Array>
          </mxGeometry>
        </mxCell>
        <mxCell id="aCQPrEgid5yJ1C7_CaqJ-6" style="edgeStyle=orthogonalEdgeStyle;rounded=0;orthogonalLoop=1;jettySize=auto;html=1;entryX=0;entryY=0.75;entryDx=0;entryDy=0;endArrow=none;endFill=0;strokeColor=#BF616A;" edge="1" parent="1" source="jRbW4b_myETGWLnF5Oeu-22" target="jRbW4b_myETGWLnF5Oeu-24">
          <mxGeometry relative="1" as="geometry">
            <Array as="points">
              <mxPoint x="330" y="330" />
              <mxPoint x="330" y="200" />
            </Array>
          </mxGeometry>
        </mxCell>
        <mxCell id="aCQPrEgid5yJ1C7_CaqJ-15" style="edgeStyle=orthogonalEdgeStyle;rounded=0;orthogonalLoop=1;jettySize=auto;html=1;exitX=0;exitY=0.25;exitDx=0;exitDy=0;endArrow=none;endFill=0;strokeColor=#81a1c1;" edge="1" parent="1" source="jRbW4b_myETGWLnF5Oeu-22">
          <mxGeometry relative="1" as="geometry">
            <mxPoint x="160" y="339.8965517241379" as="targetPoint" />
          </mxGeometry>
        </mxCell>
        <mxCell id="aCQPrEgid5yJ1C7_CaqJ-16" style="edgeStyle=orthogonalEdgeStyle;rounded=0;orthogonalLoop=1;jettySize=auto;html=1;exitX=0;exitY=0.5;exitDx=0;exitDy=0;endArrow=none;endFill=0;fontColor=#81a1c1;strokeColor=#5E81AC;" edge="1" parent="1" source="jRbW4b_myETGWLnF5Oeu-22">
          <mxGeometry relative="1" as="geometry">
            <mxPoint x="160" y="359.8965517241379" as="targetPoint" />
          </mxGeometry>
        </mxCell>
        <mxCell id="aCQPrEgid5yJ1C7_CaqJ-33" style="edgeStyle=orthogonalEdgeStyle;rounded=0;orthogonalLoop=1;jettySize=auto;html=1;exitX=0;exitY=0.75;exitDx=0;exitDy=0;endArrow=none;endFill=0;" edge="1" parent="1" source="jRbW4b_myETGWLnF5Oeu-22">
          <mxGeometry relative="1" as="geometry">
            <mxPoint x="160" y="400" as="targetPoint" />
            <Array as="points">
              <mxPoint x="160" y="380" />
            </Array>
          </mxGeometry>
        </mxCell>
        <mxCell id="aCQPrEgid5yJ1C7_CaqJ-13" style="edgeStyle=orthogonalEdgeStyle;rounded=0;orthogonalLoop=1;jettySize=auto;html=1;exitX=0;exitY=0.5;exitDx=0;exitDy=0;endArrow=oval;endFill=1;strokeColor=#88C0D0;" edge="1" parent="1" source="jRbW4b_myETGWLnF5Oeu-24">
          <mxGeometry relative="1" as="geometry">
            <mxPoint x="350" y="180.2" as="targetPoint" />
          </mxGeometry>
        </mxCell>
        <mxCell id="aCQPrEgid5yJ1C7_CaqJ-14" style="edgeStyle=orthogonalEdgeStyle;rounded=0;orthogonalLoop=1;jettySize=auto;html=1;exitX=0;exitY=0.25;exitDx=0;exitDy=0;endArrow=oval;endFill=1;strokeColor=#8FBCBB;" edge="1" parent="1" source="jRbW4b_myETGWLnF5Oeu-24">
          <mxGeometry relative="1" as="geometry">
            <mxPoint x="370" y="160.2" as="targetPoint" />
          </mxGeometry>
        </mxCell>
        <mxCell id="aCQPrEgid5yJ1C7_CaqJ-17" style="edgeStyle=orthogonalEdgeStyle;rounded=0;orthogonalLoop=1;jettySize=auto;html=1;" edge="1" parent="1">
          <mxGeometry relative="1" as="geometry">
            <mxPoint x="520" y="150" as="targetPoint" />
            <mxPoint x="460" y="150" as="sourcePoint" />
          </mxGeometry>
        </mxCell>
        <mxCell id="jRbW4b_myETGWLnF5Oeu-24" value="$$&lt;br&gt;\text{D}\,1&lt;br&gt;$$" style="rounded=0;whiteSpace=wrap;html=1;" parent="1" vertex="1">
          <mxGeometry x="390" y="140" width="70" height="80" as="geometry" />
        </mxCell>
        <mxCell id="aCQPrEgid5yJ1C7_CaqJ-11" style="edgeStyle=orthogonalEdgeStyle;rounded=0;orthogonalLoop=1;jettySize=auto;html=1;exitX=0;exitY=0.5;exitDx=0;exitDy=0;endArrow=oval;endFill=1;strokeColor=#88C0D0;" edge="1" parent="1" source="jRbW4b_myETGWLnF5Oeu-26">
          <mxGeometry relative="1" as="geometry">
            <mxPoint x="350" y="300.20000000000005" as="targetPoint" />
          </mxGeometry>
        </mxCell>
        <mxCell id="aCQPrEgid5yJ1C7_CaqJ-12" style="edgeStyle=orthogonalEdgeStyle;rounded=0;orthogonalLoop=1;jettySize=auto;html=1;exitX=0;exitY=0.25;exitDx=0;exitDy=0;endArrow=oval;endFill=1;strokeColor=#8FBCBB;" edge="1" parent="1" source="jRbW4b_myETGWLnF5Oeu-26">
          <mxGeometry relative="1" as="geometry">
            <mxPoint x="370" y="280.20000000000005" as="targetPoint" />
          </mxGeometry>
        </mxCell>
        <mxCell id="jRbW4b_myETGWLnF5Oeu-26" value="$$&lt;br&gt;\text{D}\,2&lt;br&gt;$$" style="rounded=0;whiteSpace=wrap;html=1;" parent="1" vertex="1">
          <mxGeometry x="390" y="260" width="70" height="80" as="geometry" />
        </mxCell>
        <mxCell id="aCQPrEgid5yJ1C7_CaqJ-9" style="edgeStyle=orthogonalEdgeStyle;rounded=0;orthogonalLoop=1;jettySize=auto;html=1;exitX=0;exitY=0.5;exitDx=0;exitDy=0;endArrow=oval;endFill=1;strokeColor=#88C0D0;" edge="1" parent="1" source="jRbW4b_myETGWLnF5Oeu-27">
          <mxGeometry relative="1" as="geometry">
            <mxPoint x="350" y="420.20000000000005" as="targetPoint" />
          </mxGeometry>
        </mxCell>
        <mxCell id="aCQPrEgid5yJ1C7_CaqJ-10" style="edgeStyle=orthogonalEdgeStyle;rounded=0;orthogonalLoop=1;jettySize=auto;html=1;exitX=0;exitY=0.25;exitDx=0;exitDy=0;endArrow=oval;endFill=1;strokeColor=#8FBCBB;" edge="1" parent="1" source="jRbW4b_myETGWLnF5Oeu-27">
          <mxGeometry relative="1" as="geometry">
            <mxPoint x="370" y="400.20000000000005" as="targetPoint" />
          </mxGeometry>
        </mxCell>
        <mxCell id="jRbW4b_myETGWLnF5Oeu-27" value="$$&lt;br&gt;\text{D}\,3&lt;br&gt;$$" style="rounded=0;whiteSpace=wrap;html=1;" parent="1" vertex="1">
          <mxGeometry x="390" y="380" width="70" height="80" as="geometry" />
        </mxCell>
        <mxCell id="aCQPrEgid5yJ1C7_CaqJ-7" style="edgeStyle=orthogonalEdgeStyle;rounded=0;orthogonalLoop=1;jettySize=auto;html=1;exitX=0;exitY=0.5;exitDx=0;exitDy=0;endArrow=none;endFill=0;fontColor=#88c0d0;strokeColor=#88C0D0;" edge="1" parent="1" source="aCQPrEgid5yJ1C7_CaqJ-1">
          <mxGeometry relative="1" as="geometry">
            <mxPoint x="160" y="130" as="targetPoint" />
            <Array as="points">
              <mxPoint x="350" y="540" />
              <mxPoint x="350" y="130" />
              <mxPoint x="300" y="130" />
            </Array>
          </mxGeometry>
        </mxCell>
        <mxCell id="aCQPrEgid5yJ1C7_CaqJ-8" style="edgeStyle=orthogonalEdgeStyle;rounded=0;orthogonalLoop=1;jettySize=auto;html=1;exitX=0;exitY=0.25;exitDx=0;exitDy=0;endArrow=none;endFill=0;strokeColor=#8FBCBB;" edge="1" parent="1" source="aCQPrEgid5yJ1C7_CaqJ-1">
          <mxGeometry relative="1" as="geometry">
            <mxPoint x="160" y="110" as="targetPoint" />
            <Array as="points">
              <mxPoint x="370" y="520" />
              <mxPoint x="370" y="110" />
              <mxPoint x="300" y="110" />
            </Array>
          </mxGeometry>
        </mxCell>
        <mxCell id="aCQPrEgid5yJ1C7_CaqJ-1" value="$$&lt;br&gt;\text{D}\,4&lt;br&gt;$$" style="rounded=0;whiteSpace=wrap;html=1;" vertex="1" parent="1">
          <mxGeometry x="390" y="500" width="70" height="80" as="geometry" />
        </mxCell>
        <mxCell id="aCQPrEgid5yJ1C7_CaqJ-18" style="edgeStyle=orthogonalEdgeStyle;rounded=0;orthogonalLoop=1;jettySize=auto;html=1;" edge="1" parent="1">
          <mxGeometry relative="1" as="geometry">
            <mxPoint x="520" y="170" as="targetPoint" />
            <mxPoint x="460" y="170" as="sourcePoint" />
          </mxGeometry>
        </mxCell>
        <mxCell id="aCQPrEgid5yJ1C7_CaqJ-19" style="edgeStyle=orthogonalEdgeStyle;rounded=0;orthogonalLoop=1;jettySize=auto;html=1;" edge="1" parent="1">
          <mxGeometry relative="1" as="geometry">
            <mxPoint x="520" y="190" as="targetPoint" />
            <mxPoint x="460" y="190" as="sourcePoint" />
          </mxGeometry>
        </mxCell>
        <mxCell id="aCQPrEgid5yJ1C7_CaqJ-20" style="edgeStyle=orthogonalEdgeStyle;rounded=0;orthogonalLoop=1;jettySize=auto;html=1;" edge="1" parent="1">
          <mxGeometry relative="1" as="geometry">
            <mxPoint x="520" y="210" as="targetPoint" />
            <mxPoint x="460" y="210" as="sourcePoint" />
          </mxGeometry>
        </mxCell>
        <mxCell id="aCQPrEgid5yJ1C7_CaqJ-21" style="edgeStyle=orthogonalEdgeStyle;rounded=0;orthogonalLoop=1;jettySize=auto;html=1;" edge="1" parent="1">
          <mxGeometry relative="1" as="geometry">
            <mxPoint x="520" y="270" as="targetPoint" />
            <mxPoint x="460" y="270" as="sourcePoint" />
          </mxGeometry>
        </mxCell>
        <mxCell id="aCQPrEgid5yJ1C7_CaqJ-22" style="edgeStyle=orthogonalEdgeStyle;rounded=0;orthogonalLoop=1;jettySize=auto;html=1;" edge="1" parent="1">
          <mxGeometry relative="1" as="geometry">
            <mxPoint x="520" y="290" as="targetPoint" />
            <mxPoint x="460" y="290" as="sourcePoint" />
          </mxGeometry>
        </mxCell>
        <mxCell id="aCQPrEgid5yJ1C7_CaqJ-23" style="edgeStyle=orthogonalEdgeStyle;rounded=0;orthogonalLoop=1;jettySize=auto;html=1;" edge="1" parent="1">
          <mxGeometry relative="1" as="geometry">
            <mxPoint x="520" y="310" as="targetPoint" />
            <mxPoint x="460" y="310" as="sourcePoint" />
          </mxGeometry>
        </mxCell>
        <mxCell id="aCQPrEgid5yJ1C7_CaqJ-24" style="edgeStyle=orthogonalEdgeStyle;rounded=0;orthogonalLoop=1;jettySize=auto;html=1;" edge="1" parent="1">
          <mxGeometry relative="1" as="geometry">
            <mxPoint x="520" y="330" as="targetPoint" />
            <mxPoint x="460" y="330" as="sourcePoint" />
          </mxGeometry>
        </mxCell>
        <mxCell id="aCQPrEgid5yJ1C7_CaqJ-25" style="edgeStyle=orthogonalEdgeStyle;rounded=0;orthogonalLoop=1;jettySize=auto;html=1;" edge="1" parent="1">
          <mxGeometry relative="1" as="geometry">
            <mxPoint x="520" y="390" as="targetPoint" />
            <mxPoint x="460" y="390" as="sourcePoint" />
          </mxGeometry>
        </mxCell>
        <mxCell id="aCQPrEgid5yJ1C7_CaqJ-26" style="edgeStyle=orthogonalEdgeStyle;rounded=0;orthogonalLoop=1;jettySize=auto;html=1;" edge="1" parent="1">
          <mxGeometry relative="1" as="geometry">
            <mxPoint x="520" y="410" as="targetPoint" />
            <mxPoint x="460" y="410" as="sourcePoint" />
          </mxGeometry>
        </mxCell>
        <mxCell id="aCQPrEgid5yJ1C7_CaqJ-27" style="edgeStyle=orthogonalEdgeStyle;rounded=0;orthogonalLoop=1;jettySize=auto;html=1;" edge="1" parent="1">
          <mxGeometry relative="1" as="geometry">
            <mxPoint x="520" y="430" as="targetPoint" />
            <mxPoint x="460" y="430" as="sourcePoint" />
          </mxGeometry>
        </mxCell>
        <mxCell id="aCQPrEgid5yJ1C7_CaqJ-28" style="edgeStyle=orthogonalEdgeStyle;rounded=0;orthogonalLoop=1;jettySize=auto;html=1;" edge="1" parent="1">
          <mxGeometry relative="1" as="geometry">
            <mxPoint x="520" y="450" as="targetPoint" />
            <mxPoint x="460" y="450" as="sourcePoint" />
          </mxGeometry>
        </mxCell>
        <mxCell id="aCQPrEgid5yJ1C7_CaqJ-29" style="edgeStyle=orthogonalEdgeStyle;rounded=0;orthogonalLoop=1;jettySize=auto;html=1;" edge="1" parent="1">
          <mxGeometry relative="1" as="geometry">
            <mxPoint x="520" y="510" as="targetPoint" />
            <mxPoint x="460" y="510" as="sourcePoint" />
          </mxGeometry>
        </mxCell>
        <mxCell id="aCQPrEgid5yJ1C7_CaqJ-30" style="edgeStyle=orthogonalEdgeStyle;rounded=0;orthogonalLoop=1;jettySize=auto;html=1;" edge="1" parent="1">
          <mxGeometry relative="1" as="geometry">
            <mxPoint x="520" y="530" as="targetPoint" />
            <mxPoint x="460" y="530" as="sourcePoint" />
          </mxGeometry>
        </mxCell>
        <mxCell id="aCQPrEgid5yJ1C7_CaqJ-31" style="edgeStyle=orthogonalEdgeStyle;rounded=0;orthogonalLoop=1;jettySize=auto;html=1;" edge="1" parent="1">
          <mxGeometry relative="1" as="geometry">
            <mxPoint x="520" y="550" as="targetPoint" />
            <mxPoint x="460" y="550" as="sourcePoint" />
          </mxGeometry>
        </mxCell>
        <mxCell id="aCQPrEgid5yJ1C7_CaqJ-32" style="edgeStyle=orthogonalEdgeStyle;rounded=0;orthogonalLoop=1;jettySize=auto;html=1;" edge="1" parent="1">
          <mxGeometry relative="1" as="geometry">
            <mxPoint x="520" y="570" as="targetPoint" />
            <mxPoint x="460" y="570" as="sourcePoint" />
          </mxGeometry>
        </mxCell>
        <mxCell id="aCQPrEgid5yJ1C7_CaqJ-38" value="$$&lt;br&gt;1&lt;br&gt;$$" style="text;html=1;align=center;verticalAlign=middle;resizable=0;points=[];autosize=1;strokeColor=none;fillColor=none;" vertex="1" parent="1">
          <mxGeometry x="140" y="380" width="40" height="60" as="geometry" />
        </mxCell>
        <mxCell id="aCQPrEgid5yJ1C7_CaqJ-39" value="$$&lt;br&gt;en_0&lt;br&gt;$$" style="text;html=1;align=center;verticalAlign=middle;resizable=0;points=[];autosize=1;strokeColor=none;fillColor=none;fontColor=#bf616a;" vertex="1" parent="1">
          <mxGeometry x="290" y="280" width="50" height="60" as="geometry" />
        </mxCell>
        <mxCell id="aCQPrEgid5yJ1C7_CaqJ-40" value="$$&lt;br&gt;en_1&lt;br&gt;$$" style="text;html=1;align=center;verticalAlign=middle;resizable=0;points=[];autosize=1;strokeColor=none;fillColor=none;fontColor=#ebcb8b;" vertex="1" parent="1">
          <mxGeometry x="300" y="312" width="50" height="60" as="geometry" />
        </mxCell>
        <mxCell id="aCQPrEgid5yJ1C7_CaqJ-43" value="$$&lt;br&gt;op_0&lt;br&gt;$$" style="text;html=1;align=center;verticalAlign=middle;resizable=0;points=[];autosize=1;strokeColor=none;fillColor=none;" vertex="1" parent="1">
          <mxGeometry x="510" y="120" width="50" height="60" as="geometry" />
        </mxCell>
        <mxCell id="aCQPrEgid5yJ1C7_CaqJ-44" value="$$&lt;br&gt;op_1&lt;br&gt;$$" style="text;html=1;align=center;verticalAlign=middle;resizable=0;points=[];autosize=1;strokeColor=none;fillColor=none;" vertex="1" parent="1">
          <mxGeometry x="510" y="140" width="50" height="60" as="geometry" />
        </mxCell>
        <mxCell id="aCQPrEgid5yJ1C7_CaqJ-45" value="$$&lt;br&gt;op_2&lt;br&gt;$$" style="text;html=1;align=center;verticalAlign=middle;resizable=0;points=[];autosize=1;strokeColor=none;fillColor=none;" vertex="1" parent="1">
          <mxGeometry x="510" y="160" width="50" height="60" as="geometry" />
        </mxCell>
        <mxCell id="aCQPrEgid5yJ1C7_CaqJ-46" value="$$&lt;br&gt;op_3&lt;br&gt;$$" style="text;html=1;align=center;verticalAlign=middle;resizable=0;points=[];autosize=1;strokeColor=none;fillColor=none;" vertex="1" parent="1">
          <mxGeometry x="510" y="180" width="50" height="60" as="geometry" />
        </mxCell>
        <mxCell id="aCQPrEgid5yJ1C7_CaqJ-47" value="$$&lt;br&gt;op_4&lt;br&gt;$$" style="text;html=1;align=center;verticalAlign=middle;resizable=0;points=[];autosize=1;strokeColor=none;fillColor=none;" vertex="1" parent="1">
          <mxGeometry x="510" y="240" width="50" height="60" as="geometry" />
        </mxCell>
        <mxCell id="aCQPrEgid5yJ1C7_CaqJ-51" value="$$&lt;br&gt;op_8&lt;br&gt;$$" style="text;html=1;align=center;verticalAlign=middle;resizable=0;points=[];autosize=1;strokeColor=none;fillColor=none;" vertex="1" parent="1">
          <mxGeometry x="510" y="360" width="50" height="60" as="geometry" />
        </mxCell>
        <mxCell id="aCQPrEgid5yJ1C7_CaqJ-55" value="$$&lt;br&gt;op_{12}&lt;br&gt;$$" style="text;html=1;align=center;verticalAlign=middle;resizable=0;points=[];autosize=1;strokeColor=none;fillColor=none;" vertex="1" parent="1">
          <mxGeometry x="505" y="480" width="60" height="60" as="geometry" />
        </mxCell>
        <mxCell id="jRbW4b_myETGWLnF5Oeu-22" value="$$&lt;br&gt;\text{D}\,0&lt;br&gt;$$" style="rounded=0;whiteSpace=wrap;html=1;" parent="1" vertex="1">
          <mxGeometry x="240" y="320" width="70" height="80" as="geometry" />
        </mxCell>
      </root>
    </mxGraphModel>
  </diagram>
</mxfile>
